/* XPM */
static char * love_app_xpm[] = {
"32 32 269 2",
"  	c None",
". 	c #29AAE2",
"+ 	c #2EABE2",
"@ 	c #48B4E5",
"# 	c #52B8E7",
"$ 	c #45B2E5",
"% 	c #2CABE2",
"& 	c #34ADE3",
"* 	c #7DC8EC",
"= 	c #C0E2F5",
"- 	c #ECF4FB",
"; 	c #F2F8FC",
"> 	c #F2F8FD",
", 	c #E9F3FB",
"' 	c #B8DFF4",
") 	c #73C5EB",
"! 	c #2FACE3",
"~ 	c #2AAAE2",
"{ 	c #79C6EC",
"] 	c #DBEBF8",
"^ 	c #E9F2FB",
"/ 	c #EAF3FB",
"( 	c #EAF4FB",
"_ 	c #EAF4FC",
": 	c #D3E8F7",
"< 	c #6CC1EA",
"[ 	c #33ADE3",
"} 	c #AAD7F2",
"| 	c #E0EDF9",
"1 	c #E1EFFA",
"2 	c #E1EEFA",
"3 	c #9AD1EF",
"4 	c #AED8F2",
"5 	c #D7E9F8",
"6 	c #D8EAF9",
"7 	c #D9EBF9",
"8 	c #D7EAF8",
"9 	c #9ED2F0",
"0 	c #8ACAED",
"a 	c #CFE6F7",
"b 	c #D0E6F8",
"c 	c #D2E7F8",
"d 	c #D1E7F8",
"e 	c #D0E6F7",
"f 	c #76C4EB",
"g 	c #49B3E5",
"h 	c #C6E1F5",
"i 	c #C8E2F6",
"j 	c #C8E3F6",
"k 	c #C9E3F6",
"l 	c #E7F2FB",
"m 	c #FDFEFF",
"n 	c #DFEEFA",
"o 	c #E0EFFA",
"p 	c #FEFFFF",
"q 	c #E9F4FB",
"r 	c #C2DFF5",
"s 	c #39AFE4",
"t 	c #88C9ED",
"u 	c #C0DFF5",
"v 	c #F5FAFD",
"w 	c #FFFFFF",
"x 	c #ECF5FC",
"y 	c #F5F9FD",
"z 	c #77C3EB",
"A 	c #2BAAE2",
"B 	c #AED7F2",
"C 	c #B8DCF4",
"D 	c #C9E4F7",
"E 	c #E1F0FA",
"F 	c #C3E1F6",
"G 	c #C1E0F5",
"H 	c #DEEEFA",
"I 	c #C7E3F6",
"J 	c #A3D3F1",
"K 	c #40B2E5",
"L 	c #B0D8F3",
"M 	c #C6E3F6",
"N 	c #E0F0FA",
"O 	c #EBF5FC",
"P 	c #B1D8F3",
"Q 	c #42B1E5",
"R 	c #4FB7E8",
"S 	c #A9D5F2",
"T 	c #AED7F3",
"U 	c #E7F3FB",
"V 	c #DAEDF9",
"W 	c #DBEDF9",
"X 	c #EEF6FC",
"Y 	c #DFEFFA",
"Z 	c #ACD7F2",
"` 	c #AAD6F2",
" .	c #4FB6E7",
"..	c #33ACE3",
"+.	c #51B8E9",
"@.	c #A2D2F2",
"#.	c #A3D3F2",
"$.	c #F4FAFD",
"%.	c #B6DCF4",
"&.	c #BEE0F5",
"*.	c #F9FCFE",
"=.	c #DCEEFA",
"-.	c #4CB7E8",
";.	c #45B0E4",
">.	c #2CABE3",
",.	c #46B6E8",
"'.	c #99CFF0",
").	c #9CD0F0",
"!.	c #BFE0F6",
"~.	c #FEFEFF",
"{.	c #AED8F3",
"].	c #BBDEF5",
"^.	c #B1DAF3",
"/.	c #9DD0F0",
"(.	c #9ED0F0",
"_.	c #92CCEF",
":.	c #4AB7E8",
"<.	c #55B5E6",
"[.	c #2EACE3",
"}.	c #47B6E8",
"|.	c #7EC6ED",
"1.	c #95CDF0",
"2.	c #96CDF0",
"3.	c #EDF6FC",
"4.	c #CFE8F8",
"5.	c #96CEF0",
"6.	c #77C4ED",
"7.	c #60B9E8",
"8.	c #2FADE3",
"9.	c #5CBCEA",
"0.	c #8ECAEF",
"a.	c #C0E1F6",
"b.	c #8FCBEF",
"c.	c #D2EAF8",
"d.	c #E0F0FB",
"e.	c #8FCBF0",
"f.	c #90CCF0",
"g.	c #90CCEF",
"h.	c #58BAE9",
"i.	c #72BEE9",
"j.	c #2DACE3",
"k.	c #75C3EC",
"l.	c #87C8EE",
"m.	c #88C8EE",
"n.	c #F4F9FD",
"o.	c #B7DDF4",
"p.	c #89C9EE",
"q.	c #CDE8F8",
"r.	c #E0F1FB",
"s.	c #89C9EF",
"t.	c #70C2EC",
"u.	c #52B8E9",
"v.	c #78C3EC",
"w.	c #80C6ED",
"x.	c #E5F2FB",
"y.	c #C8E5F7",
"z.	c #81C6ED",
"A.	c #82C6EE",
"B.	c #DEF0FA",
"C.	c #CFE9F8",
"D.	c #77C3ED",
"E.	c #4EB8E8",
"F.	c #64BEEA",
"G.	c #6ABBE8",
"H.	c #3FB3E6",
"I.	c #48B7E8",
"J.	c #4EB8E9",
"K.	c #71C1EC",
"L.	c #79C3EC",
"M.	c #BEE1F6",
"N.	c #F2F9FD",
"O.	c #7FC6ED",
"P.	c #79C4EC",
"Q.	c #79C4ED",
"R.	c #7AC4ED",
"S.	c #8DCCEF",
"T.	c #A6D7F3",
"U.	c #70C1EC",
"V.	c #4FB8E8",
"W.	c #7FC5EC",
"X.	c #55B6E6",
"Y.	c #35AFE4",
"Z.	c #61BDEA",
"`.	c #7EC6EE",
" +	c #F6FBFE",
".+	c #73C2EC",
"++	c #72C1EC",
"@+	c #DFF0FA",
"#+	c #E8F4FC",
"$+	c #75C2EC",
"%+	c #4DB7E8",
"&+	c #59BAEA",
"*+	c #94CBEE",
"=+	c #39AEE3",
"-+	c #46B6E7",
";+	c #88CDEF",
">+	c #9ED5F2",
",+	c #81C8EE",
"'+	c #86CAEF",
")+	c #AADAF4",
"!+	c #F0F8FD",
"~+	c #76C6ED",
"{+	c #6EC2EC",
"]+	c #4EB7E9",
"^+	c #84C7EE",
"/+	c #7BC1EA",
"(+	c #36AFE4",
"_+	c #49B7E8",
":+	c #6AC2EC",
"<+	c #CBE9F8",
"[+	c #FCFEFF",
"}+	c #B8E1F6",
"|+	c #5DBDEA",
"1+	c #6FC3EC",
"2+	c #8CCDEF",
"3+	c #88CBEF",
"4+	c #6AC0EC",
"5+	c #9ACDEF",
"6+	c #42B3E6",
"7+	c #4BB7E8",
"8+	c #54BAE9",
"9+	c #6BC2EC",
"0+	c #67C0EB",
"a+	c #88CAEE",
"b+	c #8FCDF0",
"c+	c #5EBCEA",
"d+	c #9BCEEF",
"e+	c #71BEE9",
"f+	c #53B8E8",
"g+	c #54B9E9",
"h+	c #4FB8E9",
"i+	c #5EBDEA",
"j+	c #9ACFF0",
"k+	c #88C6EC",
"l+	c #2FABE2",
"m+	c #40B0E4",
"n+	c #64BCE9",
"o+	c #6DC1EC",
"p+	c #9DCFF0",
"q+	c #8AC7EC",
"r+	c #3AAEE3",
"s+	c #73BFEA",
"t+	c #6ABFEB",
"u+	c #52B9E9",
"v+	c #61BDEB",
"w+	c #8BCAEF",
"x+	c #A0CFF0",
"y+	c #78C1EA",
"z+	c #57B6E6",
"A+	c #86C5EC",
"B+	c #81C5ED",
"C+	c #74C3EC",
"D+	c #6BC0EC",
"E+	c #66BEEB",
"F+	c #67BFEB",
"G+	c #6FC2EC",
"H+	c #7DC6ED",
"I+	c #93CCEF",
"J+	c #89C6EC",
"K+	c #4CB4E5",
"L+	c #4BB3E5",
"M+	c #68BCE8",
"N+	c #7FC3EB",
"O+	c #8EC8ED",
"P+	c #94CAEE",
"Q+	c #8DC7EC",
"R+	c #7DC3EB",
"S+	c #66BCE8",
"T+	c #42B1E4",
"                                                                ",
"                                                                ",
"                        . + @ # # $ % .                         ",
"                  . & * = - ; > > ; , ' ) ! .                   ",
"                ~ { ] ^ / ( _ _ _ _ ( / ^ : < .                 ",
"            . [ } | 1 1 1 1 1 1 1 1 1 1 1 2 | 3 +               ",
"          . ! 4 5 6 6 6 6 6 6 6 6 6 6 7 7 7 7 8 9 ~             ",
"          . 0 a b b b b b b b b b c d d d d d d e f .           ",
"        . g h i i i j j k l m n o p q k k k k k k r s .         ",
"      . . t u u u u u u u v w x _ w y u u u u u u u z . .       ",
"      . A B C C C C C C C D E F G H I C C C C C C C J % .       ",
"      . K L L L L L L L L M N O O H G L P P P P P P L Q .       ",
"    . . R S S S S S S T U p _ V W X w Y Z ` ` ` ` ` `  ....     ",
"    . . +.@.@.@.@.@.#.U $.%.#.#.#.#.&.*.=.#.#.#.#.#.#.-.;..     ",
"    . >.,.'.).).).).!.~.{.).).).).).).].w ^./././.(._.:.<..     ",
"    . [.}.|.1.1.1.1.N Y 1.1.1.1.1.1.2.2.3.4.5.5.5.5.6.-.7..     ",
"    . 8.}.9.0.0.0.0.> a.b.b.b.b.b.b.b.b.c.d.e.e.f.g.h.-.i..     ",
"    . j.}.}.k.l.l.m.n.o.m.m.m.m.m.m.m.p.q.r.s.s.s.t.-.u.i..     ",
"    . ~ ,.}.-.v.w.w.x.y.w.w.w.w.z.z.A.A.B.C.A.A.D.E.-.F.G..     ",
"    . . H.}.I.J.K.L.M.N.O.P.P.Q.R.R.R.S.m T.R.U.V.-.-.W.X..     ",
"      . Y.I.I.I.:.Z.`. +C..+++++++++R.@+#+$+Z.%+-.%+&+*+=+      ",
"      . ~ -+I.I.I.I.E.;+*.@+>+,+'+)+3.!+~+{+9.-.]+]+^+/+.       ",
"      . . (+I.I.I.I._+:.:+<+[+w w  +}+|+1+2+3+]+]+4+5+$ .       ",
"        . . 6+I._+:.:.:.7+-.8+9+0+V.-.-.0+a+b+]+c+d+e+.         ",
"          . & f+:.:.7+-.-.-.-.-.-.-.%+]+]+g+h+i+j+k+l+          ",
"          . . m+n+E.-.-.-.-.-.-.-.]+]+]+J.h+o+p+q+&             ",
"            . . r+s+t+u+-.-.-.]+]+]+]+h+v+w+x+y+!               ",
"                . % z+A+B+C+D+E+F+G+H+I+x+J+K+.                 ",
"                  . . % L+M+N+O+P+Q+R+S+T+. .                   ",
"                        . . . . . . . .                         ",
"                                                                ",
"                                                                "};
