/* XPM */
static char * love_game_xpm[] = {
"32 32 228 2",
"  	c None",
". 	c #29AAE2",
"+ 	c #2EABE2",
"@ 	c #48B4E5",
"# 	c #52B8E7",
"$ 	c #45B2E5",
"% 	c #2CABE2",
"& 	c #34ADE3",
"* 	c #7DC8EC",
"= 	c #C0E2F5",
"- 	c #ECF4FB",
"; 	c #F2F8FC",
"> 	c #F2F8FD",
", 	c #E9F3FB",
"' 	c #B8DFF4",
") 	c #73C5EB",
"! 	c #2FACE3",
"~ 	c #2AAAE2",
"{ 	c #79C6EC",
"] 	c #DBEBF8",
"^ 	c #E9F2FB",
"/ 	c #EAF3FB",
"( 	c #EAF4FB",
"_ 	c #EAF4FC",
": 	c #D3E8F7",
"< 	c #6CC1EA",
"[ 	c #33ADE3",
"} 	c #AAD7F2",
"| 	c #E0EDF9",
"1 	c #E1EFFA",
"2 	c #E1EEFA",
"3 	c #9AD1EF",
"4 	c #AED8F2",
"5 	c #D7E9F8",
"6 	c #D8EAF9",
"7 	c #D9EBF9",
"8 	c #D7EAF8",
"9 	c #9ED2F0",
"0 	c #8ACAED",
"a 	c #CFE6F7",
"b 	c #D0E6F8",
"c 	c #D1E7F8",
"d 	c #D0E6F7",
"e 	c #76C4EB",
"f 	c #49B3E5",
"g 	c #C6E1F5",
"h 	c #C8E2F6",
"i 	c #C8E3F6",
"j 	c #C9E3F6",
"k 	c #C2DFF5",
"l 	c #39AFE4",
"m 	c #88C9ED",
"n 	c #C0DFF5",
"o 	c #77C3EB",
"p 	c #2BAAE2",
"q 	c #AED7F2",
"r 	c #B8DCF4",
"s 	c #BADDF4",
"t 	c #C0E0F5",
"u 	c #B9DCF4",
"v 	c #A3D3F1",
"w 	c #40B2E5",
"x 	c #B0D8F3",
"y 	c #C4E2F6",
"z 	c #F9FCFE",
"A 	c #FFFFFF",
"B 	c #F5FAFD",
"C 	c #C2E1F6",
"D 	c #B3D9F3",
"E 	c #E0EFFA",
"F 	c #F0F7FD",
"G 	c #C5E2F6",
"H 	c #B1D8F3",
"I 	c #42B1E5",
"J 	c #4FB7E8",
"K 	c #A9D5F2",
"L 	c #FBFDFE",
"M 	c #F4F9FD",
"N 	c #CFE7F8",
"O 	c #FAFDFE",
"P 	c #AAD6F2",
"Q 	c #ABD6F2",
"R 	c #E3F1FB",
"S 	c #E6F2FB",
"T 	c #F4FAFD",
"U 	c #FDFEFF",
"V 	c #C1E0F6",
"W 	c #4FB6E7",
"X 	c #33ACE3",
"Y 	c #51B8E9",
"Z 	c #A2D2F2",
"` 	c #DEEEFA",
" .	c #FAFCFE",
"..	c #AFD8F3",
"+.	c #B0D9F3",
"@.	c #DFEFFA",
"#.	c #A3D3F2",
"$.	c #D3EAF8",
"%.	c #F6FBFE",
"&.	c #4CB7E8",
"*.	c #45B0E4",
"=.	c #2CABE3",
"-.	c #46B6E8",
";.	c #99CFF0",
">.	c #9CD0F0",
",.	c #A7D5F2",
"'.	c #ACD7F3",
").	c #A6D4F2",
"!.	c #C8E4F7",
"~.	c #9FD1F1",
"{.	c #9DD0F0",
"].	c #C6E3F6",
"^.	c #9ED0F0",
"/.	c #92CCEF",
"(.	c #4AB7E8",
"_.	c #55B5E6",
":.	c #2EACE3",
"<.	c #47B6E8",
"[.	c #7EC6ED",
"}.	c #95CDF0",
"|.	c #96CDF0",
"1.	c #96CEF0",
"2.	c #77C4ED",
"3.	c #60B9E8",
"4.	c #2FADE3",
"5.	c #5CBCEA",
"6.	c #8ECAEF",
"7.	c #8ECBEF",
"8.	c #8FCBEF",
"9.	c #8FCBF0",
"0.	c #90CCF0",
"a.	c #90CCEF",
"b.	c #58BAE9",
"c.	c #72BEE9",
"d.	c #2DACE3",
"e.	c #75C3EC",
"f.	c #87C8EE",
"g.	c #88C8EE",
"h.	c #89C9EE",
"i.	c #89C9EF",
"j.	c #70C2EC",
"k.	c #52B8E9",
"l.	c #78C3EC",
"m.	c #80C6ED",
"n.	c #81C6ED",
"o.	c #82C6EE",
"p.	c #77C3ED",
"q.	c #4EB8E8",
"r.	c #64BEEA",
"s.	c #6ABBE8",
"t.	c #3FB3E6",
"u.	c #48B7E8",
"v.	c #4EB8E9",
"w.	c #71C1EC",
"x.	c #79C3EC",
"y.	c #79C4EC",
"z.	c #79C4ED",
"A.	c #7AC4ED",
"B.	c #70C1EC",
"C.	c #4FB8E8",
"D.	c #7FC5EC",
"E.	c #55B6E6",
"F.	c #35AFE4",
"G.	c #61BDEA",
"H.	c #72C1EC",
"I.	c #4DB7E8",
"J.	c #59BAEA",
"K.	c #94CBEE",
"L.	c #39AEE3",
"M.	c #46B6E7",
"N.	c #66BEEB",
"O.	c #68BFEB",
"P.	c #69BFEB",
"Q.	c #5DBCEA",
"R.	c #50B8E8",
"S.	c #4EB7E9",
"T.	c #84C7EE",
"U.	c #7BC1EA",
"V.	c #36AFE4",
"W.	c #49B7E8",
"X.	c #52B9E9",
"Y.	c #54B9E9",
"Z.	c #4DB7E9",
"`.	c #6AC0EC",
" +	c #9ACDEF",
".+	c #42B3E6",
"++	c #4BB7E8",
"@+	c #5EBCEA",
"#+	c #9BCEEF",
"$+	c #71BEE9",
"%+	c #53B8E8",
"&+	c #4FB8E9",
"*+	c #5EBDEA",
"=+	c #9ACFF0",
"-+	c #88C6EC",
";+	c #2FABE2",
">+	c #40B0E4",
",+	c #64BCE9",
"'+	c #6DC1EC",
")+	c #9DCFF0",
"!+	c #8AC7EC",
"~+	c #3AAEE3",
"{+	c #73BFEA",
"]+	c #6ABFEB",
"^+	c #61BDEB",
"/+	c #8BCAEF",
"(+	c #A0CFF0",
"_+	c #78C1EA",
":+	c #57B6E6",
"<+	c #86C5EC",
"[+	c #81C5ED",
"}+	c #74C3EC",
"|+	c #6BC0EC",
"1+	c #67BFEB",
"2+	c #6FC2EC",
"3+	c #7DC6ED",
"4+	c #93CCEF",
"5+	c #89C6EC",
"6+	c #4CB4E5",
"7+	c #4BB3E5",
"8+	c #68BCE8",
"9+	c #7FC3EB",
"0+	c #8EC8ED",
"a+	c #94CAEE",
"b+	c #8DC7EC",
"c+	c #7DC3EB",
"d+	c #66BCE8",
"e+	c #42B1E4",
"                                                                ",
"                                                                ",
"                        . + @ # # $ % .                         ",
"                  . & * = - ; > > ; , ' ) ! .                   ",
"                ~ { ] ^ / ( _ _ _ _ ( / ^ : < .                 ",
"            . [ } | 1 1 1 1 1 1 1 1 1 1 1 2 | 3 +               ",
"          . ! 4 5 6 6 6 6 6 6 6 6 6 6 7 7 7 7 8 9 ~             ",
"          . 0 a b b b b b b b b b c c c c c c c d e .           ",
"        . f g h h h i i j j j j j j j j j j j j j k l .         ",
"      . . m n n n n n n n n n n n n n n n n n n n n o . .       ",
"      . p q r r r s t u r r r r r r r r r r r r r r v % .       ",
"      . w x x x y z A B C x x x x x x D E z F G H H x I .       ",
"    . . J K K r L M N B O r P P P P Q R A S T U V P P W X .     ",
"    . . Y Z Z `  ...Z +. .@.#.#.#.#.C A $.#.P M %.#.#.&.*..     ",
"    . =.-.;.>.,.'.>.>.>.+.P >.>.>.>.).!.~.{.{.+.].^./.(._..     ",
"    . :.<.[.}.}.}.}.}.}.}.}.}.}.}.}.|.|.|.|.1.1.1.1.2.&.3..     ",
"    . 4.<.5.6.6.6.6.7.8.8.8.8.8.8.8.8.8.8.8.9.9.0.a.b.&.c..     ",
"    . d.<.<.e.f.f.g.g.g.g.g.g.g.g.g.g.h.i.i.i.i.i.j.&.k.c..     ",
"    . ~ -.<.&.l.m.m.m.m.m.m.m.m.n.n.o.o.o.o.o.o.p.q.&.r.s..     ",
"    . . t.<.u.v.w.x.x.y.y.y.y.z.A.A.A.A.A.A.A.B.C.&.&.D.E..     ",
"      . F.u.u.u.(.G.w.H.H.H.H.H.H.H.H.H.H.H.G.I.&.I.J.K.L.      ",
"      . ~ M.u.u.u.u.q.5.N.O.O.O.P.P.P.N.Q.R.&.&.S.S.T.U..       ",
"      . . V.u.u.u.u.W.(.(.q.X.Y.Y.X.C.&.&.&.Z.S.S.`. +$ .       ",
"        . . .+u.W.(.(.(.++&.&.&.&.&.&.&.I.S.S.S.@+#+$+.         ",
"          . & %+(.(.++&.&.&.&.&.&.&.I.S.S.S.&+*+=+-+;+          ",
"          . . >+,+q.&.&.&.&.&.&.&.S.S.S.v.&+'+)+!+&             ",
"            . . ~+{+]+X.&.&.&.S.S.S.S.&+^+/+(+_+!               ",
"                . % :+<+[+}+|+N.1+2+3+4+(+5+6+.                 ",
"                  . . % 7+8+9+0+a+b+c+d+e+. .                   ",
"                        . . . . . . . .                         ",
"                                                                ",
"                                                                "};
